<svg width="155" height="55" viewBox="0 0 155 55" fill="none" xmlns="http://www.w3.org/2000/svg">
<g clip-path="url(#clip0_11556_36584)">
<path d="M44.7777 27.8035C43.5622 35.5901 38.0608 40.2138 29.5422 40.2138C19.4172 40.2138 12.75 32.914 12.75 22.5936C12.75 12.2732 19.4205 5.02637 29.5422 5.02637C37.9615 5.02637 43.6085 9.65002 44.8738 17.5361H38.5941C37.7164 12.7667 34.4076 9.94479 29.5422 9.94479C23.0704 9.94479 18.8343 15.2507 18.8343 22.6002C18.8343 29.9497 23.0704 35.302 29.5422 35.302C34.3116 35.302 37.4746 32.4801 38.402 27.8068H44.7777V27.8035Z" fill="black"/>
<path d="M48.8633 27.5172C48.8633 19.8762 53.732 14.5703 61.0815 14.5703C68.431 14.5703 72.6671 20.022 72.6671 27.6132V28.5373H54.3183V28.7327C54.6097 33.1146 57.2859 35.9862 60.9855 35.9862C63.4662 35.9862 65.8509 34.817 66.8743 31.7997H72.4717C71.0608 37.2514 66.7783 40.2687 61.0815 40.2687C53.4902 40.2687 48.8633 34.9627 48.8633 27.5172ZM67.3579 25.0828C67.2618 21.3832 65.0229 18.7071 61.0782 18.7071C57.3786 18.7071 55.0436 21.1415 54.4574 25.0828H67.3546H67.3579Z" fill="#0A1A44"/>
<path d="M88.1449 39.3424C86.5386 39.879 85.2237 40.1207 84.2035 40.1207C79.921 40.1207 77.3906 37.1995 77.3906 33.0627V5.6123H82.8423V32.4301C82.8423 34.1822 83.7664 35.3514 85.0813 35.3514C85.7635 35.3514 86.6876 35.2056 88.1482 34.5233V39.3424H88.1449Z" fill="#0A1A44"/>
<path d="M105.763 22.99C105.326 20.1184 103.574 18.6081 100.361 18.6081C97.6353 18.6081 95.8833 19.9694 95.8833 21.6751C95.8833 23.818 97.8308 24.2552 101.577 25.1296C106.783 26.3451 111.019 27.0771 111.019 32.5287C111.019 37.9804 107.078 40.269 101.04 40.269C94.373 40.269 90.2825 36.8609 89.9414 30.9721H95.0022C95.3434 34.1848 97.4366 36.1786 101.037 36.1786C103.713 36.1786 105.806 35.2546 105.806 32.7705C105.806 30.6276 104.2 30.2865 99.967 29.316C94.9062 28.1005 90.7197 27.2725 90.7197 21.9169C90.7197 16.5612 94.9062 14.5674 100.404 14.5674C106.538 14.5674 110.138 17.4389 110.721 22.9867H105.757L105.763 22.99Z" fill="#0A1A44"/>
<path d="M120.846 15.1533H115.395V39.6858H120.846V15.1533Z" fill="black"/>
<path d="M5.38661 12.4764C8.35724 12.4764 10.7654 10.0682 10.7654 7.09755C10.7654 4.12692 8.35724 1.71875 5.38661 1.71875C2.41598 1.71875 0.0078125 4.12692 0.0078125 7.09755C0.0078125 10.0682 2.41598 12.4764 5.38661 12.4764Z" fill="#0A1A44"/>
<path d="M118.152 11.8531C119.994 11.8531 121.487 10.3599 121.487 8.51787C121.487 6.67586 119.994 5.18262 118.152 5.18262C116.31 5.18262 114.816 6.67586 114.816 8.51787C114.816 10.3599 116.31 11.8531 118.152 11.8531Z" fill="#0A1A44"/>
<path d="M147.086 23.7666V39.6811H141.83V36.0808H141.734C140.71 37.6375 138.034 39.9262 133.411 39.9262C128.787 39.9262 125.379 37.25 125.379 32.9178C125.379 31.3247 125.803 29.7449 126.734 28.4399C127.846 26.8799 129.545 25.8631 131.327 25.2338C133.977 24.2998 136.998 23.9587 139.783 24.3031C140.469 24.3892 141.151 24.525 141.83 24.6443V23.7202C141.83 20.7029 139.932 18.8051 136.815 18.8051C133.699 18.8051 131.9 20.4114 131.705 22.9915H126.449C126.594 17.6856 130.685 14.5723 136.815 14.5723C143.291 14.5723 147.086 18.0268 147.086 23.7699V23.7666ZM141.83 30.288V28.2942C140.72 28.1021 139.614 27.8835 138.488 27.8504C136.958 27.804 135.421 28.0259 133.97 28.5128C132.159 29.1156 130.735 30.6027 130.735 32.5767C130.735 34.7196 132.391 35.9848 135.017 35.9848C138.813 35.9848 141.83 33.355 141.83 30.2913V30.288Z" fill="#0A1A44"/>
<path d="M48.7188 53.0186V45.9639H51.2326C51.7824 45.9639 52.2362 46.0632 52.5972 46.262C52.9582 46.4607 53.2265 46.7356 53.4053 47.08C53.5842 47.4245 53.6736 47.8153 53.6736 48.2459C53.6736 48.6765 53.5842 49.0706 53.402 49.415C53.2232 49.7595 52.9516 50.0344 52.5872 50.2364C52.2229 50.4385 51.7725 50.5378 51.226 50.5378H49.4971V49.6336H51.1299C51.4777 49.6336 51.7592 49.574 51.9745 49.4515C52.1898 49.3289 52.3488 49.1666 52.4514 48.958C52.5541 48.7493 52.6038 48.5108 52.6038 48.2459C52.6038 47.9809 52.5541 47.7424 52.4514 47.5371C52.3488 47.3318 52.1898 47.1695 51.9745 47.0502C51.7559 46.9343 51.4711 46.8747 51.12 46.8747H49.7819V53.0186H48.7188Z" fill="#0A1A44"/>
<path d="M56.3315 53.1371C55.997 53.1371 55.6923 53.0742 55.4207 52.9483C55.1491 52.8225 54.9338 52.6403 54.7781 52.4019C54.6191 52.1634 54.543 51.8686 54.543 51.5242C54.543 51.2261 54.5993 50.981 54.7152 50.7856C54.8311 50.5935 54.9835 50.4411 55.1789 50.3285C55.3743 50.2159 55.5929 50.1298 55.8347 50.0735C56.0765 50.0172 56.3216 49.9741 56.5733 49.941C56.8912 49.9046 57.1463 49.8747 57.345 49.8482C57.5437 49.8251 57.6861 49.7853 57.7756 49.729C57.865 49.6727 57.9113 49.5833 57.9113 49.4607V49.4375C57.9113 49.1362 57.8285 48.9043 57.6596 48.7387C57.4907 48.5731 57.239 48.4903 56.9078 48.4903C56.5766 48.4903 56.2884 48.5665 56.0897 48.7188C55.891 48.8712 55.7552 49.0401 55.679 49.2256L54.7119 49.0037C54.8278 48.6824 54.9934 48.4207 55.2153 48.222C55.4372 48.0233 55.6923 47.8776 55.9804 47.7881C56.2686 47.6987 56.5733 47.6523 56.8945 47.6523C57.1065 47.6523 57.3317 47.6788 57.5669 47.7252C57.8054 47.7749 58.0273 47.8643 58.2359 47.9968C58.4446 48.1293 58.6135 48.3148 58.746 48.5565C58.8785 48.7983 58.9447 49.113 58.9447 49.4972V53.0113H57.9378V52.2892H57.8981C57.8319 52.4217 57.7325 52.5542 57.6 52.6834C57.4675 52.8125 57.2953 52.9185 57.0866 53.0047C56.878 53.0908 56.6263 53.1305 56.3348 53.1305L56.3315 53.1371ZM56.5567 52.3124C56.8415 52.3124 57.0866 52.2561 57.2887 52.1435C57.4907 52.0309 57.6464 51.8819 57.7524 51.6997C57.8583 51.5175 57.9113 51.3221 57.9113 51.1135V50.4312C57.8749 50.4676 57.8054 50.5007 57.6994 50.5338C57.5934 50.5637 57.4775 50.5902 57.3417 50.6133C57.2092 50.6365 57.08 50.6531 56.9508 50.673C56.825 50.6895 56.719 50.7061 56.6329 50.716C56.4342 50.7425 56.252 50.7823 56.0864 50.8419C55.9208 50.9015 55.7916 50.9876 55.6923 51.0969C55.5962 51.2095 55.5465 51.3552 55.5465 51.5407C55.5465 51.7957 55.6393 51.9878 55.8281 52.117C56.0168 52.2462 56.2553 52.3124 56.5468 52.3124H56.5567Z" fill="#0A1A44"/>
<path d="M60.3158 53.0212V47.7285H61.3127V48.5698H61.369C61.4651 48.285 61.6373 48.0597 61.8791 47.8974C62.1242 47.7318 62.4024 47.6523 62.7104 47.6523C62.7734 47.6523 62.8495 47.6523 62.939 47.659C63.0284 47.6623 63.0979 47.6689 63.1476 47.6755V48.6592C63.1079 48.6493 63.0317 48.636 62.9257 48.6195C62.8197 48.6029 62.7137 48.5963 62.6078 48.5963C62.366 48.5963 62.1474 48.6493 61.9586 48.7486C61.7698 48.8513 61.6208 48.9937 61.5082 49.1726C61.3989 49.3514 61.3426 49.5568 61.3426 49.7886V53.0212H60.3125H60.3158Z" fill="#0A1A44"/>
<path d="M66.8211 47.7269V48.5549H63.9297V47.7269H66.8211ZM64.7047 46.4584H65.7348V51.4629C65.7348 51.6616 65.7646 51.814 65.8242 51.9134C65.8838 52.0127 65.96 52.0823 66.056 52.1154C66.1521 52.1518 66.2548 52.1684 66.3674 52.1684C66.4502 52.1684 66.523 52.1618 66.586 52.1518C66.6489 52.1386 66.6953 52.132 66.7317 52.1253L66.9172 52.9765C66.8576 52.9997 66.7714 53.0229 66.6621 53.0461C66.5528 53.0693 66.4137 53.0825 66.2481 53.0858C65.9765 53.0892 65.7248 53.0428 65.4897 52.9401C65.2545 52.8407 65.0657 52.6818 64.92 52.4698C64.7743 52.2578 64.7014 51.9929 64.7014 51.6749V46.4551L64.7047 46.4584Z" fill="#0A1A44"/>
<path d="M72.7605 53.1274C72.2636 53.1274 71.8298 53.0148 71.4621 52.7863C71.0912 52.5577 70.8063 52.2398 70.601 51.8324C70.3956 51.425 70.293 50.9448 70.293 50.3983C70.293 49.8518 70.3956 49.3682 70.601 48.9575C70.8063 48.5468 71.0912 48.2255 71.4621 48.0003C71.8331 47.7718 72.2636 47.6592 72.7605 47.6592C73.2573 47.6592 73.6912 47.7718 74.0588 48.0003C74.4297 48.2289 74.7146 48.5468 74.9199 48.9575C75.1253 49.3682 75.228 49.8485 75.228 50.3983C75.228 50.9481 75.1253 51.4217 74.9199 51.8324C74.7146 52.2398 74.4297 52.561 74.0588 52.7863C73.6878 53.0148 73.2573 53.1274 72.7605 53.1274ZM72.7638 52.263C73.085 52.263 73.35 52.1768 73.562 52.0079C73.774 51.839 73.9296 51.6105 74.0323 51.329C74.135 51.0474 74.1846 50.7361 74.1846 50.3949C74.1846 50.0538 74.135 49.7458 74.0323 49.4643C73.9296 49.1827 73.774 48.9542 73.562 48.782C73.35 48.6097 73.085 48.5236 72.7638 48.5236C72.4425 48.5236 72.1709 48.6097 71.9589 48.782C71.747 48.9542 71.588 49.1827 71.4886 49.4643C71.386 49.7491 71.3363 50.0571 71.3363 50.3949C71.3363 50.7328 71.386 51.0474 71.4886 51.329C71.5913 51.6105 71.747 51.839 71.9589 52.0079C72.1709 52.1768 72.4392 52.263 72.7638 52.263Z" fill="#0A1A44"/>
<path d="M78.8892 47.726V48.5541H75.8984V47.726H78.8892ZM76.7198 53.0187V47.1133C76.7198 46.7821 76.7927 46.5072 76.9384 46.2886C77.0842 46.07 77.2763 45.9044 77.5147 45.7951C77.7532 45.6858 78.0115 45.6328 78.2931 45.6328C78.4984 45.6328 78.6773 45.6494 78.823 45.6825C78.9687 45.7156 79.078 45.7454 79.1509 45.7752L78.9091 46.6099C78.8594 46.5966 78.7998 46.5801 78.7236 46.5602C78.6475 46.5403 78.5547 46.5304 78.4487 46.5304C78.197 46.5304 78.0182 46.5933 77.9122 46.7159C77.8062 46.8384 77.7532 47.0206 77.7532 47.2524V53.0187H76.7231H76.7198Z" fill="#0A1A44"/>
<path d="M83.6647 45.9609V53.0156H82.6016V45.9609H83.6647Z" fill="#0A1A44"/>
<path d="M89.0643 47.8158C89.0279 47.4912 88.8755 47.2362 88.6106 47.0574C88.3456 46.8785 88.0078 46.7858 87.6037 46.7858C87.3156 46.7858 87.0638 46.8321 86.8519 46.9216C86.6399 47.011 86.4776 47.1369 86.3617 47.2925C86.2458 47.4515 86.1862 47.627 86.1862 47.8291C86.1862 47.998 86.2259 48.1404 86.3054 48.263C86.3849 48.3855 86.4876 48.4849 86.62 48.5677C86.7492 48.6505 86.8883 48.7167 87.0374 48.7697C87.1864 48.8227 87.3288 48.8691 87.4679 48.9022L88.1568 49.081C88.3821 49.1374 88.6139 49.2102 88.8491 49.3063C89.0842 49.4023 89.3061 49.5249 89.5082 49.6772C89.7102 49.8296 89.8725 50.0217 89.9983 50.2502C90.1242 50.4787 90.1871 50.7503 90.1871 51.065C90.1871 51.4657 90.0845 51.8201 89.8791 52.1281C89.6738 52.4395 89.3757 52.6813 88.9882 52.8634C88.6007 53.0423 88.1303 53.1317 87.5772 53.1317C87.0241 53.1317 86.5935 53.0489 86.206 52.88C85.8185 52.7111 85.5171 52.4726 85.2985 52.1646C85.0799 51.8566 84.9607 51.4889 84.9375 51.065H86.004C86.0239 51.32 86.1067 51.532 86.2524 51.7009C86.3981 51.8698 86.5836 51.9957 86.8154 52.0752C87.044 52.158 87.2957 52.1977 87.5673 52.1977C87.8687 52.1977 88.137 52.1513 88.3721 52.0553C88.6073 51.9592 88.7928 51.8267 88.9285 51.6545C89.0643 51.4823 89.1306 51.2836 89.1306 51.0517C89.1306 50.8431 89.071 50.6708 88.9517 50.5384C88.8325 50.4059 88.6735 50.2966 88.4715 50.2071C88.2694 50.1177 88.0442 50.0415 87.7925 49.9753L86.9579 49.7468C86.3915 49.5944 85.9444 49.3659 85.6165 49.0678C85.2853 48.7697 85.123 48.3756 85.123 47.8821C85.123 47.4747 85.2323 47.1203 85.4542 46.8189C85.6761 46.5175 85.9742 46.279 86.3484 46.1101C86.7227 45.9412 87.15 45.8584 87.6236 45.8584C88.0972 45.8584 88.5245 45.9412 88.8888 46.1101C89.2531 46.279 89.5446 46.5076 89.7566 46.8023C89.9685 47.0938 90.0778 47.4316 90.0878 47.8092H89.061L89.0643 47.8158Z" fill="#0A1A44"/>
<path d="M95.3104 47.8158C95.274 47.4912 95.1216 47.2362 94.8567 47.0574C94.5917 46.8785 94.2539 46.7858 93.8498 46.7858C93.5617 46.7858 93.3099 46.8321 93.098 46.9216C92.886 47.011 92.7237 47.1369 92.6078 47.2925C92.4919 47.4515 92.4322 47.627 92.4322 47.8291C92.4322 47.998 92.472 48.1404 92.5515 48.263C92.631 48.3855 92.7336 48.4849 92.8661 48.5677C92.9986 48.6505 93.1344 48.7167 93.2834 48.7697C93.4325 48.8227 93.5749 48.8691 93.714 48.9022L94.4029 49.081C94.6281 49.1374 94.86 49.2102 95.0951 49.3063C95.3303 49.4023 95.5522 49.5249 95.7542 49.6772C95.9563 49.8296 96.1219 50.0217 96.2444 50.2502C96.3703 50.4787 96.4332 50.7503 96.4332 51.065C96.4332 51.4657 96.3306 51.8201 96.1252 52.1281C95.9199 52.4395 95.6218 52.6813 95.2343 52.8634C94.8467 53.0423 94.3764 53.1317 93.8233 53.1317C93.2702 53.1317 92.8363 53.0489 92.4521 52.88C92.0646 52.7111 91.7632 52.4726 91.5446 52.1646C91.326 51.8566 91.2068 51.4889 91.1836 51.065H92.2501C92.27 51.32 92.3528 51.532 92.4985 51.7009C92.6442 51.8698 92.833 51.9957 93.0615 52.0752C93.2901 52.158 93.5418 52.1977 93.8134 52.1977C94.1148 52.1977 94.3831 52.1513 94.6182 52.0553C94.8534 51.9592 95.0388 51.8267 95.1746 51.6545C95.3104 51.4823 95.3767 51.2836 95.3767 51.0517C95.3767 50.8431 95.3171 50.6708 95.1978 50.5384C95.0786 50.4059 94.9196 50.2966 94.7176 50.2071C94.5155 50.121 94.2903 50.0415 94.0386 49.9753L93.204 49.7468C92.6376 49.5944 92.1905 49.3659 91.8626 49.0678C91.5347 48.7697 91.3691 48.3756 91.3691 47.8821C91.3691 47.4747 91.4784 47.1203 91.7003 46.8189C91.9222 46.5175 92.2203 46.279 92.5978 46.1101C92.9754 45.9412 93.3994 45.8584 93.873 45.8584C94.3466 45.8584 94.7739 45.9412 95.1382 46.1101C95.5058 46.279 95.794 46.5076 96.006 46.8023C96.2179 47.0938 96.3272 47.4316 96.3372 47.8092H95.3104V47.8158Z" fill="#0A1A44"/>
<path d="M100.743 49.0459V49.9435H97.6133V49.0459H100.743Z" fill="#0A1A44"/>
<path d="M108.06 48.256H106.983C106.943 48.0274 106.864 47.8254 106.751 47.6498C106.639 47.4743 106.5 47.3286 106.337 47.206C106.175 47.0835 105.993 46.9907 105.791 46.9311C105.589 46.8682 105.377 46.8384 105.152 46.8384C104.744 46.8384 104.383 46.9411 104.062 47.1464C103.741 47.3518 103.489 47.6498 103.304 48.044C103.118 48.4381 103.025 48.9217 103.025 49.4914C103.025 50.061 103.118 50.5512 103.304 50.9454C103.489 51.3395 103.741 51.6376 104.062 51.8396C104.383 52.0416 104.744 52.1443 105.148 52.1443C105.37 52.1443 105.582 52.1145 105.784 52.0516C105.986 51.992 106.168 51.8992 106.331 51.78C106.493 51.6608 106.632 51.515 106.745 51.3395C106.857 51.1673 106.937 50.9685 106.98 50.7433H108.056C108 51.0944 107.887 51.4124 107.725 51.7038C107.56 51.9953 107.351 52.2437 107.096 52.4557C106.841 52.6643 106.546 52.8266 106.218 52.9425C105.89 53.0585 105.533 53.1148 105.142 53.1148C104.532 53.1148 103.986 52.969 103.509 52.6776C103.032 52.3861 102.654 51.9721 102.379 51.4289C102.105 50.8857 101.969 50.2399 101.969 49.488C101.969 48.7362 102.108 48.087 102.383 47.5472C102.658 47.0073 103.035 46.59 103.512 46.2985C103.989 46.0071 104.532 45.8613 105.142 45.8613C105.516 45.8613 105.867 45.9143 106.192 46.0203C106.516 46.1263 106.808 46.282 107.069 46.4873C107.328 46.6927 107.543 46.9444 107.715 47.2391C107.884 47.5339 108 47.8718 108.06 48.2493V48.256Z" fill="#0A1A44"/>
<path d="M111.483 53.1274C110.986 53.1274 110.556 53.0148 110.185 52.7863C109.814 52.5577 109.529 52.2398 109.324 51.8324C109.118 51.425 109.016 50.9448 109.016 50.3983C109.016 49.8518 109.118 49.3682 109.324 48.9575C109.529 48.5468 109.814 48.2255 110.185 48.0003C110.556 47.7751 110.986 47.6592 111.483 47.6592C111.98 47.6592 112.414 47.7718 112.781 48.0003C113.152 48.2289 113.437 48.5468 113.643 48.9575C113.848 49.3682 113.951 49.8485 113.951 50.3983C113.951 50.9481 113.848 51.4217 113.643 51.8324C113.437 52.2398 113.152 52.561 112.781 52.7863C112.41 53.0148 111.98 53.1274 111.483 53.1274ZM111.486 52.263C111.808 52.263 112.073 52.1768 112.285 52.0079C112.497 51.839 112.652 51.6105 112.755 51.329C112.858 51.0474 112.907 50.7361 112.907 50.3949C112.907 50.0538 112.858 49.7458 112.755 49.4643C112.652 49.1827 112.497 48.9542 112.285 48.782C112.073 48.6097 111.808 48.5236 111.486 48.5236C111.165 48.5236 110.894 48.6097 110.682 48.782C110.47 48.9542 110.311 49.1827 110.211 49.4643C110.109 49.7491 110.059 50.0571 110.059 50.3949C110.059 50.7328 110.109 51.0474 110.211 51.329C110.314 51.6105 110.47 51.839 110.682 52.0079C110.894 52.1768 111.162 52.263 111.486 52.263Z" fill="#0A1A44"/>
<path d="M115.097 53.0212V47.7285H116.094V48.5698H116.15C116.246 48.285 116.419 48.0597 116.66 47.8974C116.905 47.7318 117.184 47.6523 117.492 47.6523C117.555 47.6523 117.631 47.6523 117.72 47.659C117.81 47.6623 117.879 47.6689 117.929 47.6755V48.6592C117.889 48.6493 117.813 48.636 117.707 48.6195C117.601 48.6029 117.495 48.5963 117.389 48.5963C117.147 48.5963 116.929 48.6493 116.74 48.7486C116.551 48.8513 116.402 48.9937 116.289 49.1726C116.18 49.3514 116.124 49.5568 116.124 49.7886V53.0212H115.094H115.097Z" fill="#0A1A44"/>
<path d="M118.816 55.0011V47.7244H119.823V48.5823H119.909C119.969 48.473 120.055 48.3438 120.168 48.2014C120.28 48.0557 120.436 47.9298 120.638 47.8205C120.837 47.7112 121.102 47.6582 121.43 47.6582C121.857 47.6582 122.238 47.7675 122.572 47.9828C122.907 48.1981 123.172 48.5094 123.364 48.9168C123.556 49.3242 123.652 49.811 123.652 50.384C123.652 50.957 123.556 51.4472 123.367 51.8546C123.175 52.262 122.913 52.5766 122.582 52.7952C122.251 53.0138 121.87 53.1231 121.443 53.1231C121.122 53.1231 120.86 53.0701 120.655 52.9608C120.449 52.8515 120.294 52.7257 120.178 52.5833C120.062 52.4375 119.976 52.3117 119.913 52.1957H119.85V55.0044H118.82L118.816 55.0011ZM119.827 50.3708C119.827 50.7417 119.88 51.0696 119.989 51.3478C120.098 51.6261 120.254 51.848 120.459 52.0036C120.665 52.1593 120.913 52.2388 121.211 52.2388C121.509 52.2388 121.777 52.156 121.983 51.9937C122.188 51.8281 122.347 51.6062 122.453 51.3247C122.559 51.0431 122.612 50.7252 122.612 50.3708C122.612 50.0164 122.559 49.7084 122.456 49.4302C122.35 49.1519 122.195 48.9333 121.989 48.7711C121.781 48.6088 121.522 48.5293 121.211 48.5293C120.9 48.5293 120.661 48.6055 120.456 48.7611C120.251 48.9135 120.095 49.1288 119.989 49.407C119.883 49.6819 119.83 50.0031 119.83 50.3708H119.827Z" fill="#0A1A44"/>
<path d="M127.038 53.1274C126.541 53.1274 126.107 53.0148 125.739 52.7863C125.369 52.5577 125.084 52.2398 124.878 51.8324C124.673 51.425 124.57 50.9448 124.57 50.3983C124.57 49.8518 124.673 49.3682 124.878 48.9575C125.084 48.5468 125.369 48.2255 125.739 48.0003C126.11 47.7718 126.541 47.6592 127.038 47.6592C127.535 47.6592 127.969 47.7718 128.336 48.0003C128.704 48.2289 128.992 48.5468 129.197 48.9575C129.403 49.3682 129.505 49.8485 129.505 50.3983C129.505 50.9481 129.403 51.4217 129.197 51.8324C128.992 52.2398 128.707 52.561 128.336 52.7863C127.965 53.0115 127.535 53.1274 127.038 53.1274ZM127.041 52.263C127.362 52.263 127.631 52.1768 127.839 52.0079C128.051 51.839 128.207 51.6105 128.31 51.329C128.412 51.0474 128.462 50.7361 128.462 50.3949C128.462 50.0538 128.412 49.7458 128.31 49.4643C128.207 49.1827 128.051 48.9542 127.839 48.782C127.627 48.6097 127.362 48.5236 127.041 48.5236C126.72 48.5236 126.448 48.6097 126.236 48.782C126.024 48.9542 125.865 49.1827 125.766 49.4643C125.663 49.7491 125.614 50.0571 125.614 50.3949C125.614 50.7328 125.663 51.0474 125.766 51.329C125.869 51.6105 126.024 51.839 126.236 52.0079C126.448 52.1768 126.717 52.263 127.041 52.263Z" fill="#0A1A44"/>
<path d="M130.656 53.0212V47.7285H131.653V48.5698H131.709C131.805 48.285 131.977 48.0597 132.219 47.8974C132.464 47.7318 132.742 47.6523 133.05 47.6523C133.113 47.6523 133.189 47.6523 133.279 47.659C133.368 47.6623 133.438 47.6689 133.487 47.6755V48.6592C133.448 48.6493 133.372 48.636 133.266 48.6195C133.16 48.6062 133.054 48.5963 132.948 48.5963C132.706 48.5963 132.487 48.6493 132.298 48.7486C132.11 48.8513 131.961 48.9937 131.848 49.1726C131.739 49.3514 131.682 49.5568 131.682 49.7886V53.0212H130.652H130.656Z" fill="#0A1A44"/>
<path d="M135.874 53.1371C135.54 53.1371 135.235 53.0742 134.964 52.9483C134.692 52.8225 134.48 52.6403 134.321 52.4019C134.162 52.1634 134.086 51.8686 134.086 51.5242C134.086 51.2261 134.142 50.981 134.258 50.7856C134.374 50.5935 134.53 50.4411 134.722 50.3285C134.917 50.2159 135.136 50.1298 135.378 50.0735C135.619 50.0172 135.865 49.9741 136.116 49.941C136.434 49.9046 136.689 49.8747 136.888 49.8482C137.087 49.8251 137.229 49.7853 137.319 49.729C137.408 49.6727 137.454 49.5833 137.454 49.4607V49.4375C137.454 49.1362 137.372 48.9043 137.203 48.7387C137.034 48.5731 136.782 48.4903 136.451 48.4903C136.12 48.4903 135.831 48.5665 135.633 48.7188C135.434 48.8712 135.298 49.0401 135.222 49.2256L134.255 49.0037C134.371 48.6824 134.54 48.4207 134.758 48.222C134.977 48.0233 135.235 47.8776 135.523 47.7881C135.812 47.6987 136.116 47.6523 136.438 47.6523C136.649 47.6523 136.875 47.6788 137.11 47.7252C137.348 47.7749 137.57 47.8643 137.779 47.9968C137.988 48.1293 138.156 48.3148 138.289 48.5565C138.421 48.7983 138.488 49.113 138.488 49.4972V53.0113H137.481V52.2892H137.441C137.375 52.4217 137.275 52.5542 137.143 52.6834C137.01 52.8125 136.838 52.9185 136.63 53.0047C136.421 53.0908 136.169 53.1305 135.878 53.1305L135.874 53.1371ZM136.1 52.3124C136.385 52.3124 136.63 52.2561 136.832 52.1435C137.034 52.0309 137.189 51.8819 137.295 51.6997C137.401 51.5175 137.454 51.3221 137.454 51.1135V50.4312C137.418 50.4676 137.348 50.5007 137.242 50.5338C137.136 50.5637 137.02 50.5902 136.885 50.6133C136.752 50.6365 136.623 50.6531 136.494 50.673C136.368 50.6895 136.262 50.7061 136.176 50.716C135.977 50.7425 135.795 50.7823 135.629 50.8419C135.464 50.9015 135.335 50.9876 135.235 51.0969C135.139 51.2095 135.089 51.3552 135.089 51.5407C135.089 51.7957 135.182 51.9878 135.371 52.117C135.56 52.2462 135.798 52.3124 136.09 52.3124H136.1Z" fill="#0A1A44"/>
<path d="M142.325 47.7269V48.5549H139.434V47.7269H142.325ZM140.209 46.4584H141.239V51.4629C141.239 51.6616 141.268 51.814 141.328 51.9134C141.388 52.0127 141.464 52.0823 141.56 52.1154C141.656 52.1518 141.759 52.1684 141.871 52.1684C141.954 52.1684 142.027 52.1618 142.087 52.1518C142.149 52.1386 142.196 52.132 142.232 52.1253L142.418 52.9765C142.358 52.9997 142.272 53.0229 142.163 53.0461C142.053 53.0693 141.914 53.0825 141.749 53.0858C141.477 53.0892 141.225 53.0428 140.99 52.9401C140.755 52.8407 140.566 52.6818 140.421 52.4698C140.275 52.2578 140.202 51.9929 140.202 51.6749V46.4551L140.209 46.4584Z" fill="#0A1A44"/>
<path d="M145.685 53.1231C145.165 53.1231 144.715 53.0105 144.34 52.7886C143.966 52.5634 143.675 52.2487 143.473 51.8413C143.271 51.434 143.168 50.957 143.168 50.4072C143.168 49.8574 143.271 49.3871 143.473 48.9731C143.675 48.5591 143.96 48.2378 144.327 48.006C144.695 47.7741 145.122 47.6582 145.612 47.6582C145.91 47.6582 146.202 47.7079 146.48 47.8072C146.762 47.9066 147.013 48.0623 147.235 48.2709C147.457 48.4829 147.633 48.7545 147.762 49.0923C147.891 49.4302 147.954 49.8375 147.954 50.3178V50.6821H143.748V49.9104H146.944C146.944 49.6388 146.887 49.4004 146.778 49.1884C146.669 48.9797 146.513 48.8108 146.314 48.6916C146.116 48.569 145.884 48.5094 145.616 48.5094C145.327 48.5094 145.076 48.579 144.86 48.7214C144.645 48.8638 144.48 49.046 144.364 49.2745C144.248 49.4997 144.188 49.7448 144.188 50.0098V50.6126C144.188 50.967 144.251 51.2684 144.377 51.5135C144.503 51.7619 144.678 51.9506 144.903 52.0798C145.129 52.209 145.39 52.2752 145.692 52.2752C145.887 52.2752 146.066 52.2487 146.225 52.1924C146.384 52.1361 146.523 52.0533 146.642 51.9407C146.758 51.8281 146.848 51.689 146.911 51.5234L147.884 51.6989C147.805 51.9871 147.666 52.2355 147.467 52.4508C147.265 52.6661 147.013 52.8317 146.712 52.9509C146.41 53.0701 146.066 53.1297 145.679 53.1297L145.685 53.1231Z" fill="#0A1A44"/>
</g>
<defs>
<clipPath id="clip0_11556_36584">
<rect width="147.957" height="53.2812" fill="white" transform="translate(0 1.71875)"/>
</clipPath>
</defs>
</svg>