<?xml version="1.0" encoding="utf-8"?>
<!-- Generator: Adobe Illustrator 25.2.1, SVG Export Plug-In . SVG Version: 6.00 Build 0)  -->
<svg version="1.1" id="Layer_1" xmlns="http://www.w3.org/2000/svg" xmlns:xlink="http://www.w3.org/1999/xlink" x="0px" y="0px"
	 viewBox="0 0 583.7 137.8" style="enable-background:new 0 0 583.7 137.8;" xml:space="preserve">
<style type="text/css">
    .st0 { fill: #0A1A44; }
</style>
<path class="st0" d="M187.4,126.2h-18.9V91.7h18.9v2.2H171V107h15.6v2.2H171V124h16.5V126.2z"/>
<path class="st0" d="M212.5,126.2v-16.7c0-2.6-0.5-4.5-1.6-5.6c-1.1-1.2-2.8-1.8-5.1-1.8c-3.1,0-5.3,0.8-6.7,2.3s-2.1,4.1-2.1,7.6
	v14.2h-2.3v-25.7h2l0.5,3.5h0.1c1.7-2.7,4.6-4,8.9-4c5.8,0,8.7,3.1,8.7,9.4v16.8L212.5,126.2z"/>
<path class="st0" d="M233.5,126.7c-3.7,0-6.6-1.1-8.7-3.4c-2.1-2.3-3.1-5.5-3.1-9.7c0-4.1,1-7.4,3-9.8c2-2.4,5-3.8,8.1-3.7
	c2.7-0.1,5.4,1.1,7.1,3.2c1.8,2.1,2.6,5,2.6,8.6v1.9h-18.5c0,3.5,0.9,6.2,2.5,8.1c1.8,1.9,4.3,2.9,7,2.8c1.3,0,2.6-0.1,3.9-0.3
	c1.4-0.3,2.9-0.8,4.2-1.3v2.1c-1.3,0.6-2.6,1-4,1.3C236.3,126.6,234.9,126.7,233.5,126.7z M232.9,102.2c-2.2-0.1-4.4,0.8-6,2.4
	c-1.6,2-2.6,4.5-2.6,7.1h15.9c0.1-2.5-0.5-4.9-1.9-7C236.9,103,234.9,102.1,232.9,102.2L232.9,102.2z"/>
<path class="st0" d="M259.8,100.1c1.2,0,2.3,0.1,3.5,0.3l-0.4,2.2c-1.1-0.3-2.2-0.4-3.3-0.4c-2.1,0-4.2,1-5.4,2.8
	c-1.5,2-2.2,4.5-2.1,7v14.2h-2.3v-25.7h2l0.2,4.6h0.2c0.8-1.6,1.9-3,3.4-4C256.8,100.4,258.3,100,259.8,100.1z"/>
<path class="st0" d="M288.5,100.6v1.6l-5.3,0.3c1.4,1.6,2.1,3.7,2.1,5.8c0.1,2.3-0.8,4.5-2.5,6c-1.8,1.6-4.2,2.4-6.6,2.3
	c-0.8,0-1.6,0-2.5-0.1c-0.8,0.4-1.6,1-2.1,1.7c-0.5,0.6-0.7,1.3-0.7,2.1c0,0.7,0.3,1.4,0.9,1.8c1,0.5,2.1,0.7,3.1,0.6h4.5
	c2.3-0.1,4.5,0.4,6.4,1.7c1.5,1.2,2.4,3.1,2.2,5c0.1,2.5-1.2,4.9-3.3,6.3c-2.2,1.5-5.3,2.2-9.4,2.2c-3.2,0-5.7-0.6-7.5-1.9
	c-1.7-1.2-2.7-3.1-2.7-5.2c-0.1-1.6,0.5-3.2,1.6-4.4c1.2-1.2,2.8-2.1,4.5-2.4c-0.7-0.3-1.4-0.8-1.9-1.4c-0.5-0.6-0.7-1.3-0.7-2.1
	c0-1.7,1.1-3.2,3.3-4.5c-1.4-0.6-2.7-1.6-3.5-2.9c-2-3.4-1.5-7.8,1.2-10.7c1.8-1.6,4.2-2.5,6.6-2.3c1.3,0,2.6,0.1,3.9,0.5
	L288.5,100.6z M267.8,130.6c0,3.5,2.6,5.3,7.9,5.3c6.7,0,10.1-2.1,10.1-6.4c0.1-1.3-0.5-2.6-1.6-3.4c-1.6-0.8-3.4-1.1-5.1-1h-4.2
	C270.1,125,267.8,126.9,267.8,130.6L267.8,130.6z M269.8,108.6c-0.1,1.7,0.6,3.4,1.8,4.6c1.3,1.1,3.1,1.7,4.8,1.6
	c1.8,0.1,3.6-0.5,4.9-1.6c1.2-1.3,1.8-3,1.7-4.7c0.1-1.8-0.5-3.6-1.8-4.9c-1.4-1.2-3.1-1.7-4.9-1.6c-1.8-0.1-3.5,0.5-4.8,1.8
	C270.3,105,269.6,106.7,269.8,108.6L269.8,108.6z"/>
<path class="st0" d="M289.5,100.6h2.4l5.4,14.4c1.7,4.4,2.7,7.4,3.1,9h0.1c0.7-2,1.7-5,3.2-9.1l5.4-14.3h2.4l-11.5,29.8
	c-0.6,1.7-1.4,3.4-2.3,4.9c-0.6,0.8-1.3,1.5-2.2,1.9c-1,0.4-2,0.7-3.1,0.6c-1,0-2-0.2-3-0.5v-2c1,0.3,2,0.4,3,0.4
	c0.7,0,1.5-0.2,2.1-0.6c0.7-0.4,1.3-1.1,1.7-1.8c0.7-1.2,1.3-2.5,1.7-3.8c0.7-1.7,1.1-2.8,1.3-3.4L289.5,100.6z"/>
<linearGradient id="SVGID_1_" gradientUnits="userSpaceOnUse" x1="157.3833" y1="101.5979" x2="457.3333" y2="94.5679" gradientTransform="matrix(1 0 0 -1 0 139.1)">
	<stop  offset="0.41" style="stop-color:#3F9694"/>
	<stop  offset="0.65" style="stop-color:#72CAC6"/>
</linearGradient>
<path class="st1" d="M210.5,21.1h-15c-2,0-3.6,0.1-5,0.2c-1.2,0.1-2.4,0.3-3.6,0.7c-0.9,0.3-1.8,0.7-2.6,1.2c-0.7,0.5-1.4,1.2-2,1.9
	c-0.4,0.5-0.7,1-1,1.6c-0.3,0.5-0.5,1.1-0.6,1.7c-0.2,0.7-0.3,1.5-0.4,2.2c-0.1,0.9-0.2,2-0.3,3.3h30.5v9.7H180c0.1,2,0.6,4,1.3,5.9
	c0.6,1.5,1.6,2.8,2.8,3.8c1.4,1.1,3,1.8,4.8,2.1c2.3,0.5,4.7,0.7,7,0.6h14.5v9.7h-15c-2.9,0-5.4-0.1-7.6-0.3c-2-0.2-3.9-0.5-5.8-1
	c-1.6-0.4-3.1-1-4.4-1.9c-1.3-0.8-2.5-1.8-3.5-2.9c-2.4-2.6-4.2-5.7-5.3-9.1c-1.3-4-1.9-8.1-1.8-12.3c0-9.7,3.1-17.2,9.2-22.4
	c0.9-0.8,1.9-1.5,2.9-2.1c1-0.6,2.1-1,3.2-1.3c1.3-0.3,2.6-0.6,3.9-0.7c1.6-0.2,3.2-0.3,4.9-0.2h19.5L210.5,21.1z"/>
<linearGradient id="SVGID_2_" gradientUnits="userSpaceOnUse" x1="157.4137" y1="102.7535" x2="457.3637" y2="95.7235" gradientTransform="matrix(1 0 0 -1 0 139.1)">
	<stop  offset="0.41" style="stop-color:#3F9694"/>
	<stop  offset="0.65" style="stop-color:#72CAC6"/>
</linearGradient>
<path class="st2" d="M260.8,65.7h-18.9c-2.1,0-4.1-0.1-6.2-0.3c-1.6-0.2-3.2-0.5-4.8-0.9c-1.3-0.4-2.6-0.9-3.8-1.6
	c-1.2-0.7-2.3-1.6-3.3-2.6c-2.5-2.5-4.3-5.5-5.4-8.9c-1.3-4.1-1.9-8.4-1.9-12.8c-0.2-5.4,0.9-10.7,3.1-15.7c1.8-4,5-7.3,8.9-9.2
	c1.9-0.9,4-1.5,6.1-1.8c2.5-0.4,5.1-0.7,7.7-0.7h18.4v9.7h-17c-5.4,0-9.2,1.5-11.5,4.4c-1.1,1.4-1.8,3-2.1,4.8
	c-1.1,5.8-0.9,11.7,0.6,17.4c0.6,2.3,1.9,4.4,3.7,5.9c2.1,1.6,5.4,2.4,9.8,2.4h16.6L260.8,65.7z"/>
<linearGradient id="SVGID_3_" gradientUnits="userSpaceOnUse" x1="157.4334" y1="103.7408" x2="457.3834" y2="96.7108" gradientTransform="matrix(1 0 0 -1 0 139.1)">
	<stop  offset="0.41" style="stop-color:#3F9694"/>
	<stop  offset="0.65" style="stop-color:#72CAC6"/>
</linearGradient>
<path class="st3" d="M291.4,11c4.3-0.1,8.6,0.7,12.6,2.2c3.4,1.2,6.3,3.4,8.6,6.2c1.8,2.5,3.2,5.4,3.9,8.4c1,3.7,1.4,7.5,1.4,11.3
	c0,8.9-2.2,15.7-6.5,20.2c-4.4,4.5-10.8,6.8-19.4,6.8c-4.7,0.1-9.4-0.7-13.8-2.4c-3.7-1.4-6.8-3.9-9.1-7.1
	c-3.1-4.4-4.7-10.3-4.7-17.7c-0.1-4.6,0.6-9.2,2.1-13.5c1.2-3.5,3.3-6.6,6.1-8.9c2.4-1.9,5.1-3.2,8-3.9
	C284.1,11.4,287.7,11,291.4,11z M291.1,20.2c-2.4,0-4.7,0.4-6.9,1.4c-1.9,0.9-3.5,2.3-4.6,4c-1.7,2.7-2.5,6.9-2.5,12.7
	c0,6.4,1.1,11,3.4,14c2.2,3,5.8,4.4,10.8,4.4s8.4-1.5,10.6-4.5s3.3-7.6,3.3-14s-1.1-10.8-3.4-13.7S296,20.2,291.1,20.2L291.1,20.2z"
	/>
<linearGradient id="SVGID_4_" gradientUnits="userSpaceOnUse" x1="157.4636" y1="105.0714" x2="457.4236" y2="98.0414" gradientTransform="matrix(1 0 0 -1 0 139.1)">
	<stop  offset="0.41" style="stop-color:#3F9694"/>
	<stop  offset="0.65" style="stop-color:#72CAC6"/>
</linearGradient>
<path class="st4" d="M337.1,65.7h-11V11.4h14.7l21.6,40.4V11.4h11v54.2h-14.1l-22.2-39.8V65.7z"/>
<linearGradient id="SVGID_5_" gradientUnits="userSpaceOnUse" x1="157.4935" y1="106.4386" x2="457.4535" y2="99.4086" gradientTransform="matrix(1 0 0 -1 0 139.1)">
	<stop  offset="0.41" style="stop-color:#3F9694"/>
	<stop  offset="0.65" style="stop-color:#72CAC6"/>
</linearGradient>
<path class="st5" d="M395.4,65.7h-11V11.4h14.7l21.6,40.4V11.4h11v54.2h-14.1l-22.2-39.8V65.7z"/>
<linearGradient id="SVGID_6_" gradientUnits="userSpaceOnUse" x1="157.5332" y1="107.9946" x2="457.4832" y2="100.9646" gradientTransform="matrix(1 0 0 -1 0 139.1)">
	<stop  offset="0.41" style="stop-color:#3F9694"/>
	<stop  offset="0.65" style="stop-color:#72CAC6"/>
</linearGradient>
<path class="st6" d="M483.5,21.1h-15c-2,0-3.6,0.1-5,0.2c-1.2,0.1-2.4,0.3-3.6,0.7c-0.9,0.3-1.8,0.7-2.6,1.2c-0.7,0.5-1.4,1.2-2,1.9
	c-0.4,0.5-0.7,1-1,1.6c-0.3,0.5-0.5,1.1-0.6,1.7c-0.2,0.7-0.3,1.5-0.4,2.2c-0.1,0.9-0.2,2-0.3,3.3h30.4v9.7H453c0.1,2,0.6,4,1.3,5.9
	c0.6,1.5,1.6,2.8,2.8,3.8c1.4,1.1,3,1.8,4.8,2.1c2.3,0.5,4.7,0.7,7,0.6h14.6v9.7h-15c-2.9,0-5.4-0.1-7.6-0.3c-2-0.2-3.9-0.5-5.8-1
	c-1.6-0.4-3.1-1-4.4-1.9c-1.3-0.8-2.5-1.8-3.5-2.9c-2.4-2.6-4.2-5.7-5.3-9.1c-1.3-4-1.9-8.1-1.8-12.3c0-9.7,3.1-17.2,9.2-22.4
	c0.9-0.8,1.9-1.5,2.9-2.1c1-0.6,2.1-1,3.2-1.3c1.3-0.3,2.6-0.6,3.9-0.7c1.6-0.2,3.2-0.3,4.9-0.2h19.5V21.1z"/>
<linearGradient id="SVGID_7_" gradientUnits="userSpaceOnUse" x1="157.5636" y1="109.1488" x2="457.5135" y2="102.1188" gradientTransform="matrix(1 0 0 -1 0 139.1)">
	<stop  offset="0.41" style="stop-color:#3F9694"/>
	<stop  offset="0.65" style="stop-color:#72CAC6"/>
</linearGradient>
<path class="st7" d="M533.8,65.7H515c-2.1,0-4.1-0.1-6.2-0.3c-1.6-0.2-3.2-0.5-4.8-0.9c-1.3-0.4-2.6-0.9-3.8-1.6
	c-1.2-0.7-2.3-1.6-3.3-2.6c-2.5-2.5-4.3-5.5-5.4-8.9c-1.3-4.1-1.9-8.4-1.8-12.8c-0.2-5.4,0.9-10.7,3.1-15.7c1.8-4,5-7.3,8.9-9.2
	c1.9-0.9,4-1.5,6.1-1.8c2.5-0.4,5.1-0.7,7.7-0.7h18.4v9.7h-17c-5.4,0-9.2,1.5-11.5,4.4c-1.1,1.4-1.8,3-2.1,4.8
	c-1.1,5.8-0.9,11.7,0.6,17.4c0.6,2.3,1.9,4.4,3.7,5.9c2.1,1.6,5.4,2.4,9.8,2.4h16.6L533.8,65.7z"/>
<linearGradient id="SVGID_8_" gradientUnits="userSpaceOnUse" x1="157.5837" y1="110.205" x2="457.5437" y2="103.175" gradientTransform="matrix(1 0 0 -1 0 139.1)">
	<stop  offset="0.41" style="stop-color:#3F9694"/>
	<stop  offset="0.65" style="stop-color:#72CAC6"/>
</linearGradient>
<path class="st8" d="M536.8,21.1v-9.7h46.8v9.7h-17.9v44.6h-11.6V21.1H536.8z"/>
<path class="st0" d="M135.6,106.7c0,0,28.6-60.4-48.3-77.9c0,0-11.7-1.3,3.4,22.5s62.4,95.9-20.3,82.8l2.4,1.4
	c0,0,40.9,11.9,54.5-21.2s-12.1-55.3-12.1-55.3S139.3,72.6,135.6,106.7z"/>
<path class="st0" d="M85.6,29.1c0,0-14.4-0.4-2.1,19.5s27,40.2,29.9,55.1c1.9,10.4,6.7,29.9-28.2,31.9c0,0,31.8,3.4,32.7-19.7
	c0,0,3-19.5-21.5-55.6C96.3,60.3,77.8,32.4,85.6,29.1z"/>
<path class="st0" d="M10.2,110.5c0,0,37.9,55,91.6-2.8c0,0,6.9-9.6-21.2-8.4s-114.2,6.1-61.5-59l-2.4,1.5c0,0-30.8,29.5-8.8,57.8
	s54,17.2,54,17.2S37.9,130.8,10.2,110.5z"/>
<path class="st0" d="M102.4,106c0,0,7.5-12.3-15.9-11.6s-48.4,3.3-62.7-1.7c-10-3.5-29.3-9.2-13.6-40.4c0,0-18.9,25.9,0.8,38.2
	c0,0,15.4,12.4,58.9,9.2C70.1,99.6,103.5,97.6,102.4,106z"/>
<path class="st0" d="M69.6,0c0,0-66.6,5.4-43.3,80.8c0,0,4.8,10.7,17.8-14.1s51.9-102,81.9-23.8v-2.8c0,0-10.2-41.4-45.6-36.6
	S38.5,41.6,38.5,41.6S38.2,13.8,69.6,0z"/>
<path class="st0" d="M27.4,82.1c0,0,6.9,12.7,18-7.9s21.4-43.5,32.9-53.4c8-6.9,22.5-20.8,41.7,8.5c0,0-13-29.3-33.5-18.4
	c0,0-18.4,7.2-37.4,46.4C49.1,57.3,34.2,87.3,27.4,82.1z"/>
</svg>