<svg width="295" height="69" viewBox="0 0 295 69" fill="none" xmlns="http://www.w3.org/2000/svg">
<g clip-path="url(#clip0_552_71)">
<path d="M94.7114 63.1916H85.1594V45.9165H94.7114V47.0181H86.4229V53.5777H94.3071V54.6792H86.4229V62.09H94.762V63.1916H94.7114Z" fill="#0A1A44"/>
<path d="M107.397 63.1916V54.8295C107.397 53.5276 107.144 52.5762 106.588 52.0254C106.032 51.4245 105.173 51.1241 104.011 51.1241C102.444 51.1241 101.332 51.5247 100.624 52.2758C99.9168 53.0269 99.563 54.3287 99.563 56.0813V63.1916H98.4006V50.3229H99.4114L99.6641 52.0755H99.7147C100.574 50.7235 102.039 50.0726 104.213 50.0726C107.144 50.0726 108.61 51.6248 108.61 54.7794V63.1916H107.397Z" fill="#0A1A44"/>
<path d="M118.01 63.4419C116.14 63.4419 114.674 62.8911 113.613 61.7395C112.552 60.5878 112.046 58.9855 112.046 56.8824C112.046 54.8295 112.552 53.1771 113.563 51.9753C114.573 50.7736 116.09 50.0726 117.656 50.1226C119.021 50.0726 120.385 50.6734 121.245 51.725C122.154 52.7765 122.559 54.2286 122.559 56.0312V56.9826H113.209C113.209 58.7351 113.664 60.0871 114.472 61.0385C115.382 61.9898 116.645 62.4906 118.01 62.4405C118.667 62.4405 119.324 62.3904 119.981 62.2903C120.689 62.1401 121.447 61.8897 122.104 61.6393V62.6908C121.447 62.9913 120.79 63.1916 120.082 63.3418C119.425 63.3919 118.718 63.4419 118.01 63.4419ZM117.707 51.1742C116.595 51.1241 115.483 51.5747 114.674 52.3759C113.866 53.3774 113.36 54.6292 113.36 55.9311H121.396C121.447 54.6792 121.144 53.4775 120.436 52.426C119.728 51.5747 118.718 51.1241 117.707 51.1742Z" fill="#0A1A44"/>
<path d="M131.302 50.1226C131.908 50.1226 132.464 50.1727 133.071 50.2729L132.869 51.3744C132.313 51.2242 131.757 51.1742 131.201 51.1742C130.14 51.1742 129.078 51.6749 128.472 52.5762C127.714 53.5776 127.36 54.8295 127.41 56.0813V63.1916H126.248V50.3229H127.259L127.36 52.6263H127.461C127.865 51.8251 128.421 51.1241 129.179 50.6234C129.786 50.2729 130.544 50.0726 131.302 50.1226Z" fill="#0A1A44"/>
<path d="M145.807 50.373V51.1742L143.128 51.3244C143.836 52.1255 144.19 53.1771 144.19 54.2286C144.24 55.3803 143.785 56.4819 142.926 57.2329C142.016 58.0341 140.803 58.4347 139.59 58.3846C139.186 58.3846 138.782 58.3846 138.327 58.3345C137.923 58.5348 137.518 58.8353 137.266 59.1858C137.013 59.4862 136.912 59.8367 136.912 60.2373C136.912 60.5878 137.063 60.9383 137.367 61.1386C137.872 61.389 138.428 61.4891 138.933 61.439H141.208C142.37 61.389 143.482 61.6393 144.442 62.2903C145.2 62.8911 145.655 63.8425 145.554 64.7939C145.605 66.0457 144.948 67.2475 143.886 67.9485C142.774 68.6996 141.208 69.0501 139.136 69.0501C137.518 69.0501 136.255 68.7496 135.345 68.0987C134.486 67.4978 133.981 66.5464 133.981 65.4949C133.93 64.6938 134.233 63.8926 134.789 63.2917C135.396 62.6909 136.204 62.2402 137.063 62.09C136.71 61.9398 136.356 61.6894 136.103 61.389C135.851 61.0885 135.749 60.738 135.749 60.3374C135.749 59.4862 136.305 58.7351 137.417 58.0842C136.71 57.7837 136.053 57.283 135.648 56.6321C134.638 54.9296 134.89 52.7264 136.255 51.2743C137.165 50.4731 138.378 50.0225 139.59 50.1226C140.247 50.1226 140.904 50.1727 141.561 50.373H145.807ZM135.345 65.3948C135.345 67.1473 136.659 68.0486 139.338 68.0486C142.724 68.0486 144.442 66.9971 144.442 64.844C144.493 64.193 144.19 63.5421 143.634 63.1415C142.825 62.7409 141.915 62.5907 141.056 62.6408H138.933C136.508 62.5907 135.345 63.5421 135.345 65.3948ZM136.356 54.3788C136.305 55.23 136.659 56.0813 137.266 56.6821C137.923 57.2329 138.832 57.5334 139.692 57.4833C140.601 57.5334 141.511 57.2329 142.168 56.6821C142.774 56.0312 143.078 55.18 143.027 54.3287C143.078 53.4274 142.774 52.5261 142.117 51.8752C141.41 51.2743 140.551 51.0239 139.641 51.074C138.731 51.0239 137.872 51.3244 137.215 51.9753C136.609 52.5762 136.255 53.4274 136.356 54.3788Z" fill="#0A1A44"/>
<path d="M146.312 50.373H147.525L150.254 57.5835C151.114 59.7866 151.619 61.2888 151.821 62.09H151.872C152.225 61.0885 152.731 59.5864 153.489 57.5334L156.218 50.373H157.431L151.619 65.2946C151.316 66.1459 150.911 66.9971 150.457 67.7482C150.153 68.1488 149.799 68.4993 149.345 68.6996C148.839 68.8999 148.334 69.0501 147.778 69C147.273 69 146.767 68.8999 146.262 68.7496V67.7482C146.767 67.8984 147.273 67.9485 147.778 67.9485C148.132 67.9485 148.536 67.8483 148.839 67.648C149.193 67.4478 149.496 67.0972 149.698 66.7467C150.052 66.1459 150.355 65.4949 150.558 64.844C150.911 63.9927 151.114 63.4419 151.215 63.1415L146.312 50.373Z" fill="#0A1A44"/>
<path d="M106.386 10.5653H98.805C97.7942 10.5653 96.9855 10.6154 96.278 10.6655C95.6715 10.7155 95.065 10.8157 94.4586 11.016C94.0037 11.1662 93.5488 11.3665 93.1445 11.6168C92.7908 11.8672 92.437 12.2177 92.1337 12.5682C91.9316 12.8186 91.78 13.0689 91.6283 13.3694C91.4767 13.6197 91.3756 13.9202 91.3251 14.2206C91.224 14.5711 91.1735 14.9717 91.1229 15.3222C91.0724 15.7729 91.0219 16.3237 90.9713 16.9746H106.386V21.8316H90.9713C91.0219 22.8331 91.2746 23.8345 91.6283 24.7859C91.9316 25.537 92.437 26.188 93.0435 26.6887C93.751 27.2395 94.5596 27.59 95.4693 27.7402C96.6318 27.9906 97.8447 28.0907 99.0071 28.0406H106.335V32.8977H98.7544C97.2888 32.8977 96.0253 32.8476 94.9134 32.7475C93.9026 32.6473 92.9424 32.4971 91.9821 32.2467C91.1735 32.0464 90.4154 31.746 89.7584 31.2954C89.1014 30.8948 88.4949 30.3941 87.9895 29.8433C86.7765 28.5414 85.8668 26.9891 85.3109 25.2867C84.6539 23.2837 84.3506 21.2308 84.4012 19.1277C84.4012 14.2707 85.9679 10.5152 89.0508 7.91147C89.5057 7.51089 90.0111 7.16038 90.5165 6.85995C91.0219 6.55951 91.5778 6.35922 92.1337 6.20901C92.7908 6.05879 93.4478 5.90857 94.1048 5.8585C94.9134 5.75835 95.7221 5.70828 96.5812 5.75835H106.436L106.386 10.5653Z" fill="#0A1A44"/>
<path d="M131.808 32.8977H122.256C121.194 32.8977 120.183 32.8476 119.122 32.7475C118.313 32.6473 117.505 32.4971 116.696 32.2968C116.039 32.0965 115.382 31.8461 114.776 31.4956C114.169 31.1451 113.613 30.6945 113.108 30.1938C111.844 28.9419 110.935 27.4398 110.379 25.7373C109.722 23.6843 109.418 21.5312 109.418 19.328C109.317 16.6241 109.873 13.9702 110.985 11.4666C111.895 9.46371 113.512 7.81132 115.483 6.85994C116.443 6.40928 117.505 6.10885 118.566 5.95863C119.83 5.75834 121.144 5.60812 122.458 5.60812H131.757V10.4652H123.165C120.436 10.4652 118.516 11.2163 117.353 12.6684C116.797 13.3694 116.443 14.1705 116.292 15.0718C115.736 17.976 115.837 20.9303 116.595 23.7845C116.898 24.9361 117.555 25.9877 118.465 26.7387C119.526 27.5399 121.194 27.9405 123.418 27.9405H131.808V32.8977Z" fill="#0A1A44"/>
<path d="M147.273 5.50799C149.446 5.45792 151.619 5.8585 153.641 6.60959C155.359 7.21046 156.825 8.31205 157.987 9.71408C158.897 10.9659 159.604 12.418 159.958 13.9202C160.463 15.7729 160.666 17.6756 160.666 19.5784C160.666 24.0348 159.554 27.4398 157.38 29.693C155.157 31.9463 151.922 33.098 147.576 33.098C145.2 33.148 142.825 32.7475 140.601 31.8962C138.731 31.1952 137.165 29.9434 136.002 28.3411C134.435 26.1379 133.627 23.1836 133.627 19.4782C133.576 17.1749 133.93 14.8716 134.688 12.7184C135.295 10.9659 136.356 9.41365 137.771 8.26198C138.984 7.3106 140.349 6.65966 141.814 6.30915C143.583 5.70828 145.403 5.50799 147.273 5.50799ZM147.121 10.1147C145.908 10.1147 144.746 10.315 143.634 10.8157C142.673 11.2663 141.865 11.9674 141.309 12.8186C140.45 14.1705 140.045 16.2736 140.045 19.1778C140.045 22.3824 140.601 24.6858 141.764 26.188C142.876 27.6901 144.695 28.3912 147.222 28.3912C149.749 28.3912 151.467 27.6401 152.579 26.1379C153.691 24.6357 154.247 22.3324 154.247 19.1277C154.247 15.9231 153.691 13.7199 152.529 12.2678C151.366 10.8157 149.597 10.1147 147.121 10.1147Z" fill="#0A1A44"/>
<path d="M170.369 32.8977H164.81V5.70827H172.239L183.156 25.9376V5.70827H188.715V32.8476H181.589L170.369 12.9187V32.8977Z" fill="#0A1A44"/>
<path d="M199.834 32.8977H194.274V5.70827H201.704L212.62 25.9376V5.70827H218.18V32.8476H211.054L199.834 12.9187V32.8977Z" fill="#0A1A44"/>
<path d="M244.359 10.5653H236.778C235.768 10.5653 234.959 10.6154 234.251 10.6655C233.645 10.7155 233.038 10.8157 232.432 11.016C231.977 11.1662 231.522 11.3665 231.118 11.6168C230.764 11.8672 230.41 12.2177 230.107 12.5682C229.905 12.8186 229.753 13.0689 229.602 13.3694C229.45 13.6197 229.349 13.9202 229.298 14.2206C229.197 14.5711 229.147 14.9717 229.096 15.3222C229.046 15.7729 228.995 16.3237 228.945 16.9746H244.309V21.8316H228.945C228.995 22.8331 229.248 23.8345 229.602 24.7859C229.905 25.537 230.41 26.188 231.017 26.6887C231.724 27.2395 232.533 27.59 233.443 27.7402C234.605 27.9906 235.818 28.0907 236.981 28.0406H244.359V32.8977H236.778C235.313 32.8977 234.049 32.8476 232.937 32.7475C231.927 32.6473 230.966 32.4971 230.006 32.2467C229.197 32.0464 228.439 31.746 227.782 31.2954C227.125 30.8948 226.519 30.3941 226.013 29.8433C224.8 28.5414 223.891 26.9891 223.335 25.2867C222.678 23.2837 222.375 21.2308 222.425 19.1277C222.425 14.2707 223.992 10.5152 227.075 7.91147C227.53 7.51089 228.035 7.16038 228.54 6.85995C229.046 6.55951 229.602 6.35922 230.158 6.20901C230.815 6.05879 231.472 5.90857 232.129 5.8585C232.937 5.75835 233.746 5.70828 234.605 5.75835H244.46V10.5653H244.359Z" fill="#0A1A44"/>
<path d="M269.781 32.8977H260.279C259.218 32.8977 258.207 32.8476 257.146 32.7475C256.337 32.6473 255.528 32.4971 254.72 32.2968C254.063 32.0965 253.406 31.8461 252.799 31.4956C252.193 31.1451 251.637 30.6945 251.132 30.1938C249.868 28.9419 248.958 27.4398 248.402 25.7373C247.745 23.6843 247.442 21.5312 247.493 19.328C247.392 16.6241 247.948 13.9702 249.059 11.4666C249.969 9.46371 251.586 7.81132 253.557 6.85994C254.518 6.40928 255.579 6.10885 256.64 5.95863C257.904 5.75834 259.218 5.60812 260.532 5.60812H269.831V10.4652H261.239C258.51 10.4652 256.59 11.2163 255.427 12.6684C254.871 13.3694 254.518 14.1705 254.366 15.0718C253.81 17.976 253.911 20.9303 254.669 23.7845C254.973 24.9361 255.63 25.9877 256.539 26.7387C257.601 27.5399 259.268 27.9405 261.492 27.9405H269.882L269.781 32.8977Z" fill="#0A1A44"/>
<path d="M271.297 10.5653V5.70827H294.949V10.5653H285.903V32.8977H280.04V10.5653H271.297Z" fill="#0A1A44"/>
<path d="M68.5317 53.4274C68.5317 53.4274 82.986 23.1836 44.121 14.4209C44.121 14.4209 38.2079 13.77 45.8394 25.6872C53.4709 37.6045 77.3761 73.7068 35.5798 67.1473L36.7928 67.8483C36.7928 67.8483 57.4635 73.807 64.3369 57.2329C71.2103 40.6589 58.2216 29.5428 58.2216 29.5428C58.2216 29.5428 70.4017 36.3527 68.5317 53.4274Z" fill="#0A1A44"/>
<path d="M43.262 14.5711C43.262 14.5711 35.9843 14.3708 42.2007 24.3353C48.417 34.2997 55.8464 44.4644 57.312 51.9253C58.2723 57.1328 60.6982 66.897 43.0598 67.8984C43.0598 67.8984 59.1314 69.6009 59.5863 58.0341C59.5863 58.0341 61.1025 48.27 48.7203 30.1938C48.6697 30.1938 39.3199 16.2235 43.262 14.5711Z" fill="#0A1A44"/>
<path d="M5.15491 55.3302C5.15491 55.3302 24.3094 82.8701 51.4492 53.9282C51.4492 53.9282 54.9365 49.1212 40.7348 49.7221C26.5332 50.3229 -16.9815 52.7765 9.65294 20.1792L8.43999 20.9303C8.43999 20.9303 -7.12623 35.7017 3.9925 49.8723C15.1112 64.0428 31.2839 58.4848 31.2839 58.4848C31.2839 58.4848 19.1544 65.4949 5.15491 55.3302Z" fill="#0A1A44"/>
<path d="M51.7527 53.0769C51.7527 53.0769 55.5432 46.918 43.7169 47.2685C31.8906 47.619 19.2557 48.9209 12.0285 46.4173C6.97455 44.6647 -2.7796 41.8106 5.15512 26.188C5.15512 26.188 -4.39687 39.1568 5.55944 45.3157C5.55944 45.3157 13.3425 51.5247 35.3273 49.9224C35.4284 49.8723 52.3086 48.8708 51.7527 53.0769Z" fill="#0A1A44"/>
<path d="M35.1757 0C35.1757 0 1.51627 2.70392 13.292 40.4586C13.292 40.4586 15.7179 45.8164 22.2881 33.3984C28.8582 20.9804 48.5181 -17.6756 63.68 21.4811V20.0791C63.68 20.0791 58.525 -0.650944 40.634 1.75254C22.7429 4.15602 19.4578 20.8302 19.4578 20.8302C19.4578 20.8302 19.3062 6.91001 35.1757 0Z" fill="#0A1A44"/>
<path d="M13.8479 41.1096C13.8479 41.1096 17.3351 47.4688 22.945 37.1539C28.5549 26.8389 33.7605 15.3723 39.5726 10.4151C43.6158 6.96009 50.944 7.62939e-06 60.6476 14.6713C60.6476 14.6713 54.0775 7.62939e-06 43.7168 5.45792C43.7168 5.45792 34.4175 9.06314 24.815 28.6916C24.815 28.6916 17.2846 43.7134 13.8479 41.1096Z" fill="#0A1A44"/>
</g>
<defs>
<clipPath id="clip0_552_71">
<rect width="295" height="69" fill="white"/>
</clipPath>
</defs>
</svg>
