<svg width="321" height="44" viewBox="0 0 321 44" fill="none" xmlns="http://www.w3.org/2000/svg">
<path d="M59.3985 22.1903C59.3985 25.6064 57.6033 28.1283 54.0993 28.1283C50.5953 28.1283 48.7425 25.6095 48.7425 22.1903C48.7425 18.771 50.5377 16.0791 54.0993 16.0791C57.6609 16.0791 59.3985 18.7427 59.3985 22.1903ZM268.749 16.3971H264.95V21.4347H268.749C270.749 21.4347 271.869 20.5657 271.869 18.9159C271.869 17.2661 270.749 16.3971 268.749 16.3971ZM90.5089 15.9626H86.5057V20.827H90.4801C92.6593 20.827 93.4529 19.9013 93.4529 18.3366C93.4529 17.0047 92.7169 15.9626 90.5089 15.9626ZM320.259 18.6325V25.5529C320.259 35.4517 312.106 43.474 302.045 43.474H301.562C293.325 43.474 286.362 38.0901 284.115 30.7069C281.866 38.0932 274.906 43.474 266.666 43.474H266.186C257.946 43.474 250.982 38.0901 248.736 30.7069C246.486 38.0932 239.526 43.474 231.29 43.474H230.806C222.55 43.474 215.578 38.068 213.347 30.6565C211.11 38.068 204.141 43.474 195.885 43.474H195.402C187.165 43.474 180.202 38.0901 177.955 30.7069C175.706 38.0932 168.746 43.474 160.509 43.474H160.026C151.77 43.474 144.797 38.0712 142.56 30.6628C140.323 38.0712 133.354 43.474 125.101 43.474H124.618C116.381 43.474 109.418 38.0901 107.171 30.7069C104.922 38.0932 97.9617 43.474 89.7217 43.474H89.2385C80.9857 43.474 74.0129 38.0712 71.7793 30.6628C69.5425 38.0712 62.5729 43.474 54.3201 43.474H53.8369C45.6193 43.474 38.6721 38.1184 36.4065 30.7573C34.1505 38.1373 27.1937 43.5086 18.9633 43.5086H18.4801C8.41288 43.5118 0.259277 35.4863 0.259277 25.5843V18.6671C0.259277 8.77149 8.41288 0.746028 18.4737 0.746028H18.9569C27.1777 0.746028 34.1249 6.10158 36.3905 13.4627C38.6433 6.08269 45.6001 0.711395 53.8305 0.711395H54.3137C62.5665 0.711395 69.5393 6.11418 71.7729 13.5225C74.0097 6.11418 80.9825 0.711395 89.2353 0.711395H89.7185C97.9585 0.711395 104.922 6.09529 107.168 13.4785C109.418 6.09214 116.378 0.711395 124.614 0.711395H125.098C133.35 0.711395 140.323 6.11418 142.557 13.5225C144.794 6.11418 151.763 0.711395 160.022 0.711395H160.506C168.742 0.711395 175.706 6.09529 177.952 13.4785C180.202 6.09214 187.162 0.711395 195.398 0.711395H195.882C204.138 0.711395 211.11 6.11733 213.344 13.5288C215.578 6.11733 222.547 0.711395 230.803 0.711395H231.286C239.523 0.711395 246.486 6.09529 248.733 13.4785C250.982 6.09214 257.942 0.711395 266.182 0.711395H266.662C274.902 0.711395 281.866 6.09529 284.112 13.4785C286.362 6.09214 293.322 0.711395 301.558 0.711395H302.042C312.102 0.711395 320.256 8.73371 320.256 18.6325H320.259ZM29.5745 12.4017H21.0081L18.9825 27.1712H18.4513L16.4161 12.4017H7.84968V31.8057H12.4129V16.8914H12.9441L15.9777 31.8057H21.4529L24.4769 16.8914H25.0081V31.8057H29.5713V12.4017H29.5745ZM64.0225 22.2186C64.0225 16.2239 60.5185 11.9672 54.1025 11.9672C47.6865 11.9672 44.1249 16.2239 44.1249 22.2186C44.1249 28.2133 47.6577 32.2402 54.1025 32.2402C60.5473 32.2402 64.0225 28.185 64.0225 22.2186ZM94.4833 23.2324V22.8546C96.3969 22.6216 98.0737 21.2048 98.0737 18.1036C98.0737 14.5112 95.7793 11.964 90.9505 11.964H81.9425V31.3681H86.5057V24.8507H90.8033C92.2177 24.8507 92.6593 26.1826 92.9217 28.2102L93.2737 31.3681H97.8657L97.3953 28.0087C97.0433 25.4899 96.4545 23.8369 94.4801 23.2293L94.4833 23.2324ZM132.288 12.4017H117.424V31.8057H132.288V27.8103H121.987V23.7834H131.994V19.9895H121.987V16.3971H132.288V12.4017ZM168.445 25.8803C168.445 21.7401 165.296 20.6948 160.557 19.9423C158.115 19.5361 157.114 18.7553 157.114 17.7415C157.142 16.7844 158.086 16.0035 159.968 16.0035C161.706 16.0035 163.619 16.671 163.677 18.5507L168.093 18.6388C167.917 14.6434 165.414 12.0081 160.115 12.0081C155.318 12.0081 152.608 14.3254 152.608 18.0595C152.608 21.7936 155.699 23.3584 160.23 24.0542C162.97 24.4603 163.882 25.0963 163.882 26.3998C163.882 27.7914 162.234 28.2826 160.614 28.2826C158.554 28.2826 156.877 27.3569 156.73 25.2128L152.138 25.1247C152.374 30.0174 155.552 32.278 160.614 32.278C166.208 32.278 168.445 29.4696 168.445 25.8772V25.8803ZM190.653 22.1021C190.653 18.5979 192.182 16.0791 195.715 16.0791C198.688 16.0791 200.278 18.0469 200.544 20.0178H205.046C204.634 15.3266 201.366 11.9672 195.715 11.9672C189.328 11.9672 186.237 15.9941 186.237 21.9888C186.237 27.9835 189.328 32.2402 195.715 32.2402C201.366 32.2402 204.634 28.8525 205.046 24.1896H200.544C200.339 26.1605 198.691 28.1 195.715 28.1C192.182 28.1 190.653 25.493 190.653 22.1053V22.1021ZM241.2 22.2281C241.2 16.2334 237.696 11.9766 231.28 11.9766C224.864 11.9766 221.302 16.2334 221.302 22.2281C221.302 28.2228 224.835 32.2497 231.28 32.2497C237.725 32.2497 241.2 28.1944 241.2 22.2281ZM276.49 18.9159C276.49 15.3235 274.371 12.3985 269.366 12.3985H260.387V31.8026H264.95V25.4301H269.366C274.371 25.4301 276.49 22.5051 276.49 18.9127V18.9159ZM309.565 12.3922H294.701V31.7963H309.565V27.8009H299.264V23.774H309.27V19.9801H299.264V16.3876H309.565V12.3922ZM231.28 16.0885C227.718 16.0885 225.923 18.7522 225.923 22.1997C225.923 25.6473 227.718 28.1378 231.28 28.1378C234.842 28.1378 236.579 25.619 236.579 22.1997C236.579 18.7805 234.784 16.0885 231.28 16.0885Z" fill="#0A1A44"/>
</svg>